# xmcd
#
# Track frame offsets:
#	150
#	3158
#	14495
#	25968
#	37427
#	61769
#	75908
#	93208
#	113157
#	130522
#	141891
#	162387
#	176905
#	207772
#	238926
#	272642
#	303931
#	317838
#
# Disc length: 4583 seconds
#
# Revision: 1
# Processed by: cddbd v1.5.1PL0 Copyright (c) Steve Scherf et al.
# Submitted via: audiograbber 1.83.01
#
DISCID=ec11e512
DTITLE=Botafogo - Live in Japan
DYEAR=1900
DGENRE=
TTITLE0=Intro
TTITLE1=Funky Miracle
TTITLE2=Poison Ivy
TTITLE3=Lucille
TTITLE4=She's a Good 'Un
TTITLE5=I Just Want To Make Love To You
TTITLE6=Built For Comfort
TTITLE7=Nihon Blues
TTITLE8=It Hurts Me Too
TTITLE9=Violent Love
TTITLE10=SpoonFul
TTITLE11=Kojima's Boogie
TTITLE12=Stop Breaking Down
TTITLE13=Yo Me Pregunto (I Wonder)
TTITLE14=Get Out Of My Life
TTITLE15=Manish Boy
TTITLE16=I Want To Be Loved
TTITLE17=Jamming With Shin Chan (Walking By Myself)
EXTD=
EXTT0=
EXTT1=
EXTT2=
EXTT3=
EXTT4=
EXTT5=
EXTT6=
EXTT7=
EXTT8=
EXTT9=
EXTT10=
EXTT11=
EXTT12=
EXTT13=
EXTT14=
EXTT15=
EXTT16=
EXTT17=
PLAYORDER=
